<svg id="Layer_1" data-name="Layer 1" xmlns="http://www.w3.org/2000/svg" viewBox="0 0 512 512"><title>public-transport-bus-flat</title><rect y="9.13" width="512.01" height="493.73" rx="54.99" ry="54.99" transform="translate(512) rotate(90)" fill="#e6d6a6"/><rect x="20.23" y="11.09" width="471.54" height="489.81" rx="43.89" ry="43.89" fill="#809b52"/><path d="M160.84,357.59H143.06V239.11L154.14,159a23.11,23.11,0,0,1,4.65-11.71,40.43,40.43,0,0,1,9.26-8.75,57.67,57.67,0,0,1,11.59-6.19,83.42,83.42,0,0,1,11.86-3.75,317.59,317.59,0,0,1,32.06-6.44,227.81,227.81,0,0,1,32.84-2.31h15.45c.69,0,2.19.13,4.52.39s4.84.55,7.6.9,5.41.74,8,1.16,4.55.72,5.93.9a21.82,21.82,0,0,1,3.86.78l6.83,1.67q3.72.9,7.07,1.8c2.24.61,3.87,1,4.89,1.16A119.06,119.06,0,0,1,332,132.25,62.65,62.65,0,0,1,343.82,138a44.77,44.77,0,0,1,9.66,8.11A19.5,19.5,0,0,1,358.38,157l10.56,81.13V357.59H350.66v21.9a9.46,9.46,0,0,1-1.55,5.41,13.49,13.49,0,0,1-3.85,3.85,21.07,21.07,0,0,1-5.16,2.47,17.52,17.52,0,0,1-5.15.9q-7.48,0-11.08-3.23a17.82,17.82,0,0,1-5.15-8.23,37.3,37.3,0,0,1-1.54-11V358.11H194.58V380a8.6,8.6,0,0,1-1.67,5.15,16,16,0,0,1-4,3.86,17.6,17.6,0,0,1-5,2.32,18.16,18.16,0,0,1-5,.78q-7.73,0-11.47-3.23a16.5,16.5,0,0,1-5.15-8.23,40.44,40.44,0,0,1-1.41-11Z" fill="#e6d6a6"/><path d="M162.64,242a12.14,12.14,0,0,0,1.94,6.82q1.92,3,6.3,3h170.5a12.69,12.69,0,0,0,5-1.55c2.16-1,3.22-2.32,3.22-3.85v-9.79q-1.8-13.15-3.08-22.16T343.82,196c-.94-6.27-1.76-11.47-2.44-15.58-.17-1-.43-2.25-.77-3.61a23,23,0,0,0-1.42-4,11.52,11.52,0,0,0-2.31-3.35A4.73,4.73,0,0,0,333.4,168H179.89a5.49,5.49,0,0,0-3.86,1.43,12,12,0,0,0-2.58,3.47,23.82,23.82,0,0,0-1.67,4.38,33,33,0,0,0-.9,4.11q-.52,3.12-1.68,11.08t-2.32,17.12c-.77,6.1-1.55,11.85-2.31,17.26s-1.35,9.15-1.68,11.2c0,.5,0,1.21-.13,2.07S162.64,241.61,162.64,242Z" fill="#809b52"/><path d="M162.64,306.1A15,15,0,0,0,167,317.17a15.32,15.32,0,0,0,11.33,4.36c4.81,0,8.45-1.49,11-4.5A17,17,0,0,0,193,305.84a14.75,14.75,0,0,0-4.12-10.69,14.06,14.06,0,0,0-10.56-4.25,15.23,15.23,0,0,0-11.21,4.51A14.65,14.65,0,0,0,162.64,306.1Z" fill="#809b52"/><path d="M203.08,146.91a10.39,10.39,0,0,0,1.15,4.64,4.11,4.11,0,0,0,4,2.33H304a4,4,0,0,0,4.13-2.59,13.92,13.92,0,0,0,1-5.15,9.34,9.34,0,0,0-1-4.12,3.47,3.47,0,0,0-3.35-2h-97.1a3.64,3.64,0,0,0-3.6,2.57A12.1,12.1,0,0,0,203.08,146.91Z" fill="#809b52"/><path d="M318.72,306.1A15.23,15.23,0,0,0,323,317.17c2.83,2.92,6.66,4.36,11.45,4.36a15.06,15.06,0,0,0,10.95-4.1,14.42,14.42,0,0,0,4.25-10.83,15.59,15.59,0,0,0-4.37-11.06,14.62,14.62,0,0,0-11.08-4.64,15.18,15.18,0,0,0-15.46,15.21Z" fill="#809b52"/></svg>